<svg width="574" height="135" viewBox="0 0 574 135" fill="none" xmlns="http://www.w3.org/2000/svg">
<path d="M479.168 76.042C479.16 76.0169 479.151 75.992 479.143 75.9668L479.072 75.7441L479.168 76.042ZM374.125 28H403.143C405.588 28 407.925 28.4626 410.071 29.3037C412.218 28.4625 414.555 28 417 28H430.714C434.504 28 438.035 29.11 441 31.0225C443.965 29.11 447.496 28 451.286 28H464.374C466.55 24.2494 469.193 20.7338 472.285 17.5322L472.286 17.5312C483.361 6.06834 498.927 0.000154495 514.735 0V19C503.668 19.0001 493.17 23.2608 485.951 30.7324C479.199 37.7226 475.679 47.0658 476.023 57.0273V57.0498L476.025 57.0713L477.045 70.0117C477.525 76.7408 479.738 80.6496 482.42 82.8555C485.081 85.0439 488.044 85.4238 489.783 85.4238C490.678 85.4238 491.599 85.3303 492.529 85.1553C492.587 86.2814 492.579 87.7196 492.57 88.9688V88.9707L492.559 91.2871C492.538 92.9103 467.407 104.374 469.529 106.523C470.432 107.441 472.827 21.0552 475.356 21.0552L543.524 15.5982C546.055 15.5982 555.763 96.9833 556.666 96.0713L534.895 98.0576C536.75 96.1749 536.922 93.6493 536.922 91.957L536.915 91.2871L536.901 88.9746C536.894 87.7204 536.884 86.2806 536.942 85.1543C537.878 85.3306 538.797 85.4238 539.691 85.4238C541.43 85.4238 544.392 85.0435 547.053 82.8584C549.735 80.6551 551.948 76.7507 552.429 70.0293L547.053 65.5982L548.365 54.5982L553.45 57.0469L553.451 57.0371L545 58.7031C545.344 48.7416 550.274 37.7232 543.524 30.7354C536.304 23.2615 525.805 19 514.735 19V0C530.301 0 545.626 5.88131 556.666 17L557.188 17.5332L557.19 17.5361C567.574 28.2866 572.896 42.5787 572.446 57.4385C572.445 57.4961 572.443 57.5537 572.441 57.6113C572.441 57.6352 572.44 57.6597 572.439 57.6836L572.438 57.6826C572.435 57.7976 572.431 57.9125 572.425 58.0273L572.419 58.1445C572.411 58.3094 572.4 58.4741 572.388 58.6387L572.386 58.6641C572.385 58.677 572.384 58.6902 572.383 58.7031L571.37 71.5254L571.369 71.5244C570.6 81.8896 566.819 91.21 559.112 97.54C557.679 98.7176 556.22 99.6963 554.771 100.512C553.774 103.935 551.911 107.858 548.429 111.393C548.417 111.405 548.404 111.417 548.392 111.429L548.393 111.43C548.384 111.439 548.374 111.447 548.365 111.456C548.353 111.468 548.342 111.48 548.33 111.492L548.328 111.494L548.327 111.493C544.369 115.46 538.109 119 529.861 119H499.612C492.813 119 487.342 116.592 483.395 113.487C482.112 118.444 478.879 122.615 474.562 125.134C471.268 130.778 465.149 134.571 458.143 134.571H423.857C420.036 134.571 416.479 133.442 413.5 131.501C410.521 133.442 406.964 134.571 403.143 134.571H368.857C361.851 134.571 355.731 130.778 352.437 125.134C348.27 122.702 345.114 118.731 343.746 114H313.982C310.188 114 306.654 112.887 303.688 110.971C300.721 112.887 297.187 114 293.393 114H263.254C261.886 118.732 258.729 122.702 254.562 125.134C251.268 130.778 245.149 134.571 238.143 134.571H203.857C196.851 134.571 190.731 130.778 187.437 125.134C183.27 122.702 180.114 118.731 178.746 114H174.714V115.571C174.714 126.065 166.207 134.571 155.714 134.571H142C136.124 134.571 130.872 131.904 127.387 127.714H115.054C108.047 127.714 101.928 123.921 98.6338 118.277C96.7008 117.149 94.9841 115.691 93.5635 113.978C91.7398 113.891 89.9836 113.547 88.3301 112.981C85.9984 114.003 83.4225 114.571 80.7139 114.571H67C59.4437 114.571 52.9187 110.16 49.8574 103.772C46.7961 110.16 40.2702 114.571 32.7139 114.571H19C8.50659 114.571 0 106.065 0 95.5713V27C0 16.5066 8.50659 8 19 8H32.7139L90.2139 72L32.7139 54.4287H39.5713V53.0713H46.4287V54.4287H53.2861V61.2861H60.1426V54.4287H67L42.8623 24.5713H56.5762L80.7139 27H67V33.8574H60.1426V40.7139H53.2861V47.5713H46.4287V40.7139H39.5713V33.8574H32.7139V8C39.72 8 45.8396 11.7929 49.1338 17.4365C49.3783 17.5792 49.619 17.7277 49.8564 17.8809C50.0941 17.7275 50.3353 17.5794 50.5801 17.4365C53.8743 11.7928 59.9938 8 67 8H80.7139C82.867 8 84.9367 8.35859 86.8662 9.01855C89.198 7.99709 91.7738 7.42871 94.4824 7.42871H128.768C135.774 7.42871 141.893 11.222 145.188 16.8662C149.354 19.2979 152.511 23.2685 153.879 28H183.143C185.588 28 187.925 28.4626 190.071 29.3037C192.218 28.4625 194.555 28 197 28H210.714C214.504 28 218.035 29.11 221 31.0225C223.965 29.11 227.496 28 231.286 28H233.25V26.4287C233.25 15.9353 241.757 7.42871 252.25 7.42871H293.393C295.814 7.42871 298.129 7.88232 300.259 8.70801C302.388 7.88226 304.704 7.42871 307.125 7.42871H320.839C324.629 7.42871 328.16 8.53953 331.125 10.4521C334.09 8.53953 337.621 7.42871 341.411 7.42871H355.125C365.618 7.42871 374.125 15.9353 374.125 26.4287V28Z" fill="black"/>
<path d="M542.806 31.43C535.788 24.166 525.556 20 514.736 20C503.918 20 493.686 24.166 486.671 31.4277C480.113 38.2167 476.687 47.2937 477.022 56.9928L478.042 69.9344C478.973 83.011 486.565 84.4238 489.783 84.4238C490.95 84.4238 492.18 84.255 493.428 83.9319C493.597 85.1567 493.583 87.3046 493.571 88.9755L493.559 91.2997C493.537 92.9874 493.503 95.5428 495.292 97.3533C496.032 98.1055 497.385 99 499.612 99H529.862C532.089 99 533.44 98.1055 534.182 97.3558C535.969 95.5428 535.937 92.9897 535.915 91.2997L535.901 88.9804C535.891 87.3073 535.874 85.1568 536.046 83.932C537.307 84.2574 538.529 84.4239 539.691 84.4239C542.909 84.4239 550.499 83.0112 551.432 69.9586L552.445 57.1279L552.452 56.9929C552.787 47.2937 549.361 38.2167 542.806 31.43ZM546.207 56.7081L545.202 69.4906C544.79 75.2527 542.933 78.1746 539.691 78.1746C538.943 78.1746 538.107 78.0371 537.176 77.7598C534.953 77.1186 533.027 77.5477 531.667 78.9171C529.599 81.0001 529.62 84.3657 529.654 89.0235L529.666 91.3813C529.671 91.767 529.678 92.3361 529.645 92.7507H523.048V85.0334H518.048V92.7508H511.423V85.0335H506.425V92.7508H499.827C499.795 92.3361 499.802 91.7672 499.807 91.3767L499.819 89.0164C499.853 84.3634 499.875 81.0002 497.806 78.9172C496.454 77.5526 494.573 77.1042 492.271 77.7673C491.367 78.0373 490.53 78.1747 489.783 78.1747C486.538 78.1747 484.686 75.2527 484.271 69.4666L483.264 56.7081C483.008 48.745 485.81 41.3122 491.164 35.7719C497.011 29.7207 505.603 26.249 514.736 26.249C523.871 26.249 532.463 29.7207 538.309 35.772C543.664 41.3122 546.468 48.745 546.207 56.7081Z" fill="white"/>
<path d="M514.738 67.7789C513.239 67.7789 509.936 74.9827 509.333 76.1832C508.735 77.3838 509.936 79.1872 511.737 78.5846C513.538 77.9867 514.738 76.4847 514.738 76.4847C514.738 76.4847 515.939 77.9867 517.74 78.5846C519.538 79.1872 520.741 77.384 520.141 76.1832C519.538 74.9827 516.24 67.7789 514.738 67.7789Z" fill="white"/>
<path d="M501.712 48.2796C496.946 47.7782 492.674 51.2403 492.172 56.009L491.526 60.5487C491.025 65.3198 494.487 69.5871 499.253 70.0885C504.024 70.59 508.296 67.1303 508.795 62.3592L509.442 57.8195C509.941 53.0485 506.483 48.7811 501.712 48.2796Z" fill="white"/>
<path d="M537.302 56.009C536.803 51.2403 532.528 47.7782 527.762 48.2796C522.991 48.7811 519.533 53.0483 520.032 57.8195L520.676 62.3592C521.178 67.1303 525.45 70.59 530.219 70.0885C534.987 69.5871 538.449 65.3198 537.948 60.5487L537.302 56.009Z" fill="white"/>
<path d="M514.735 19C525.805 19 536.304 23.2615 543.524 30.7354C550.274 37.7232 553.795 47.0659 553.451 57.0273V57.0371L553.45 57.0469L553.443 57.1816L553.441 57.207L552.429 70.0293C551.948 76.7507 549.735 80.6551 547.053 82.8584C544.392 85.0435 541.43 85.4238 539.691 85.4238C538.797 85.4238 537.878 85.3306 536.942 85.1543C536.884 86.2806 536.894 87.7204 536.901 88.9746L536.915 91.2871L536.922 91.957C536.922 93.6493 536.75 96.1749 534.895 98.0576L534.893 98.0596C533.989 98.9716 532.392 100 529.861 100H499.612C497.083 100 495.482 98.972 494.579 98.0547C492.457 95.9051 492.538 92.9103 492.559 91.2871L492.57 88.9707V88.9688C492.579 87.7196 492.587 86.2814 492.529 85.1553C491.599 85.3303 490.678 85.4238 489.783 85.4238C488.044 85.4238 485.081 85.0439 482.42 82.8555C479.738 80.6496 477.525 76.7408 477.045 70.0117L476.025 57.0713L476.023 57.0498V57.0273C475.679 47.0658 479.199 37.7226 485.951 30.7324C493.17 23.2608 503.668 19.0001 514.735 19ZM514.736 20C503.918 20 493.686 24.166 486.671 31.4277L486.065 32.0703C479.903 38.7842 476.698 47.5966 477.022 56.9928L478.042 69.9344C478.944 82.6019 486.096 84.3236 489.469 84.4189L489.783 84.4238C490.95 84.4238 492.18 84.255 493.428 83.9319C493.597 85.1567 493.583 87.3046 493.571 88.9755L493.559 91.2997C493.537 92.9874 493.503 95.5428 495.292 97.3533C496.032 98.1055 497.385 99 499.612 99H529.862C532.089 99 533.44 98.1055 534.182 97.3558C535.969 95.5428 535.937 92.9897 535.915 91.2997L535.901 88.9804C535.891 87.3073 535.874 85.1568 536.046 83.932C537.149 84.2167 538.222 84.3797 539.252 84.416L539.691 84.4239C542.91 84.4238 550.499 83.0101 551.432 69.9586L552.445 57.1279L552.452 56.9929C552.787 47.2937 549.361 38.2167 542.806 31.43C535.788 24.166 525.556 20 514.736 20ZM530.958 78.2129C532.621 76.5379 534.947 76.0759 537.453 76.7988L537.462 76.8018C538.325 77.0589 539.063 77.1748 539.69 77.1748L539.691 78.1746L539.406 78.168C538.733 78.1379 537.99 78.0024 537.176 77.7598C534.953 77.1186 533.027 77.5477 531.667 78.9171C529.599 81.0001 529.62 84.3657 529.654 89.0235L529.666 91.3813C529.671 91.767 529.678 92.3361 529.645 92.7507H523.048V85.0334H518.048V92.7508H511.423V85.0335H506.425V92.7508H499.827L499.81 92.416C499.806 92.2983 499.804 92.1761 499.804 92.0547L499.819 89.0164C499.852 84.5088 499.873 81.2116 497.994 79.1162L497.806 78.9172C496.454 77.5526 494.573 77.1042 492.271 77.7673C491.367 78.0373 490.53 78.1747 489.783 78.1747L489.783 77.1748C490.412 77.1748 491.15 77.0579 491.984 76.8086L491.994 76.8066C494.582 76.0613 496.862 76.5437 498.517 78.2129C499.758 79.4632 500.325 81.0598 500.591 82.8564C500.853 84.6318 500.836 86.7219 500.819 89.0234L500.808 91.3818V91.3887C500.806 91.5023 500.806 91.6253 500.806 91.751H505.425V84.0332H512.423V91.751H517.048V84.0332H524.049V91.751H528.668C528.667 91.6268 528.667 91.5056 528.666 91.3936V91.3867L528.646 87.3438C528.647 85.7003 528.686 84.1907 528.883 82.8584C529.149 81.0606 529.716 79.4633 530.958 78.2129ZM514.941 66.793C515.404 66.8558 515.779 67.1205 516.023 67.3281C516.337 67.5937 516.641 67.9432 516.926 68.3164C517.499 69.0679 518.099 70.0553 518.65 71.0439C519.201 72.0314 519.727 73.0641 520.15 73.9199L521.035 75.7344V75.7363C521.548 76.7623 521.26 77.9399 520.6 78.7109C519.897 79.5306 518.726 79.9701 517.422 79.5332C516.357 79.179 515.495 78.5681 514.913 78.0693C514.852 78.017 514.794 77.9653 514.738 77.915C514.683 77.9653 514.625 78.017 514.563 78.0693C513.981 78.5684 513.119 79.1781 512.053 79.5322L512.054 79.5332C510.749 79.9695 509.579 79.5308 508.876 78.7109C508.215 77.9399 507.927 76.7626 508.438 75.7373L508.439 75.7344C508.721 75.1741 509.724 73.0192 510.826 71.0439C511.378 70.0554 511.977 69.0677 512.551 68.3164C512.836 67.9432 513.14 67.5937 513.453 67.3281C513.733 67.0911 514.182 66.7793 514.738 66.7793L514.941 66.793ZM514.738 67.7789C513.239 67.7789 509.936 74.9827 509.333 76.1832C508.735 77.3838 509.936 79.1872 511.737 78.5846C513.538 77.9867 514.738 76.4847 514.738 76.4847C514.738 76.4847 515.939 77.9867 517.74 78.5846C519.538 79.1872 520.741 77.384 520.141 76.1832C519.538 74.9827 516.24 67.7789 514.738 67.7789ZM515.591 26.2588C524.405 26.4682 532.646 29.9099 538.309 35.772C543.664 41.3122 546.468 48.745 546.207 56.7081L545.202 69.4906L545.159 70.0225C544.672 75.4324 542.832 78.1746 539.691 78.1746L539.69 77.1748C540.944 77.1748 541.913 76.6408 542.664 75.457C543.455 74.2104 544.004 72.2324 544.205 69.4189V69.4121L545.208 56.6641C545.457 48.9654 542.747 41.8024 537.59 36.4668C531.949 30.6283 523.625 27.249 514.735 27.249C505.849 27.2491 497.525 30.6285 491.884 36.4668C486.728 41.8018 484.019 48.9639 484.263 56.6621L485.269 69.3877V69.3955C485.471 72.2218 486.02 74.2055 486.811 75.4551C487.561 76.6412 488.529 77.1748 489.783 77.1748L489.783 78.1747L489.482 78.166C486.522 77.9947 484.787 75.2572 484.314 70.001L484.271 69.4666L483.264 56.7081C483.008 48.745 485.81 41.3122 491.164 35.7719C497.011 29.7207 505.603 26.249 514.736 26.249L515.591 26.2588ZM491.183 55.8682C491.76 50.5698 496.512 46.7274 501.816 47.2852C507.137 47.8443 510.993 52.6037 510.437 57.9238L510.435 57.9424L510.432 57.96L509.785 62.5C509.228 67.6358 504.75 71.3994 499.646 71.123L499.148 71.083C493.834 70.5239 489.972 65.7654 490.531 60.4443L490.533 60.4258L490.536 60.4082L491.183 55.8682ZM528.153 47.2451C533.254 46.9686 537.734 50.7349 538.291 55.8682L538.938 60.4082L538.94 60.4258L538.942 60.4443C539.502 65.7655 535.64 70.5238 530.323 71.083C525.017 71.641 520.264 67.8014 519.687 62.5L519.042 57.96L519.04 57.9414L519.038 57.9238C518.482 52.6036 522.337 47.8443 527.657 47.2852L528.153 47.2451ZM501.712 48.2796C496.946 47.7782 492.674 51.2403 492.172 56.009L491.526 60.5487L491.49 60.9941C491.242 65.5827 494.636 69.6027 499.253 70.0885C504.024 70.59 508.296 67.1303 508.795 62.3592L509.442 57.8195C509.941 53.0485 506.483 48.7811 501.712 48.2796ZM537.302 56.009C536.803 51.2403 532.528 47.7782 527.762 48.2796C522.991 48.7811 519.533 53.0483 520.032 57.8195L520.676 62.3592C521.162 66.9813 525.187 70.3727 529.773 70.124L530.219 70.0885C534.838 69.6026 538.232 65.5826 537.983 60.9941L537.948 60.5487L537.302 56.009Z" fill="white"/>
<path d="M444.429 95H451.286V47H465V108.714H458.143V115.571H423.857V108.714H417V47H430.714V95H437.571V101.857H444.429V95Z" fill="white"/>
<path d="M396.286 95H410V108.714H403.143V115.571H368.857V108.714H362V53.8571H368.857V47H403.143V53.8571H410V67.5714H396.286V60.7143H382.571V67.5714H375.714V95H382.571V101.857H396.286V95Z" fill="white"/>
<path d="M334.554 74.4286H341.411V26.4286H355.125V88.1429H348.268V95H313.982V88.1429H307.125V26.4286H320.839V74.4286H327.696V81.2857H334.554V74.4286Z" fill="white"/>
<path d="M252.25 26.4286H293.393V33.2857H300.25V88.1429H293.393V95H252.25V26.4286ZM279.679 74.4286H286.536V47H279.679V40.1429H265.964V81.2857H279.679V74.4286Z" fill="white"/>
<path d="M224.429 95H231.286V47H245V108.714H238.143V115.571H203.857V108.714H197V47H210.714V95H217.571V101.857H224.429V95Z" fill="white"/>
<path d="M142 47H183.143V53.8571H190V88.1429H183.143V95H155.714V115.571H142V47ZM176.286 60.7143H155.714V81.2857H176.286V60.7143Z" fill="white"/>
<path d="M115.054 74.4286H121.911V47H115.054V40.1429H108.196V47H101.339V74.4286H108.196V81.2857H115.054V74.4286ZM108.196 95H94.4821V88.1429H87.625V33.2857H94.4821V26.4286H128.768V33.2857H135.625V88.1429H121.911V95H135.625V108.714H115.054V101.857H108.196V95Z" fill="white"/>
<path d="M46.4286 61.2857H39.5714V54.4286H32.7143V95.5714H19V27H32.7143V33.8571H39.5714V40.7143H46.4286V47.5714H53.2857V40.7143H60.1429V33.8571H67V27H80.7143V95.5714H67V54.4286H60.1429V61.2857H53.2857V68.1429H46.4286V61.2857Z" fill="white"/>
</svg>
